<?xml version="1.0" encoding="UTF-8" standalone="no"?>
<!DOCTYPE svg PUBLIC "-//W3C//DTD SVG 1.1//EN"
 "http://www.w3.org/Graphics/SVG/1.1/DTD/svg11.dtd">
<!-- Generated by graphviz version 2.38.0 (20140413.2041)
 -->
<!-- Title: diagramA Pages: 1 -->
<svg width="148pt" height="372pt"
 viewBox="0.00 0.00 148.21 372.00" xmlns="http://www.w3.org/2000/svg" xmlns:xlink="http://www.w3.org/1999/xlink">
<g id="graph0" class="graph" transform="scale(1 1) rotate(0) translate(4 368)">
<title>diagramA</title>
<polygon fill="white" stroke="none" points="-4,4 -4,-368 144.214,-368 144.214,4 -4,4"/>
<g id="clust1" class="cluster"><title>cluster_node_b</title>
<polygon fill="none" stroke="black" points="8,-93 8,-206 94,-206 94,-93 8,-93"/>
<text text-anchor="middle" x="51" y="-190.8" font-family="Times,serif" font-size="14.00">b</text>
</g>
<g id="clust2" class="cluster"><title>cluster_node_f</title>
<polygon fill="none" stroke="black" points="16,-101 16,-176 86,-176 86,-101 16,-101"/>
<text text-anchor="middle" x="51" y="-160.8" font-family="Times,serif" font-size="14.00">node_f</text>
</g>
<!-- node_a -->
<g id="node1" class="node"><title>node_a</title>
<path fill="none" stroke="black" d="M95.7861,-0.5C95.7861,-0.5 128.214,-0.5 128.214,-0.5 134.214,-0.5 140.214,-6.5 140.214,-12.5 140.214,-12.5 140.214,-24.5 140.214,-24.5 140.214,-30.5 134.214,-36.5 128.214,-36.5 128.214,-36.5 95.7861,-36.5 95.7861,-36.5 89.7861,-36.5 83.7861,-30.5 83.7861,-24.5 83.7861,-24.5 83.7861,-12.5 83.7861,-12.5 83.7861,-6.5 89.7861,-0.5 95.7861,-0.5"/>
<text text-anchor="middle" x="112" y="-14.3" font-family="Times,serif" font-size="14.00">node_a</text>
</g>
<!-- node_g -->
<g id="node2" class="node"><title>node_g</title>
<path fill="none" stroke="black" d="M36,-109.5C36,-109.5 66,-109.5 66,-109.5 72,-109.5 78,-115.5 78,-121.5 78,-121.5 78,-133.5 78,-133.5 78,-139.5 72,-145.5 66,-145.5 66,-145.5 36,-145.5 36,-145.5 30,-145.5 24,-139.5 24,-133.5 24,-133.5 24,-121.5 24,-121.5 24,-115.5 30,-109.5 36,-109.5"/>
<text text-anchor="middle" x="51" y="-123.3" font-family="Times,serif" font-size="14.00">g</text>
</g>
<!-- node_g&#45;&gt;node_a -->
<g id="edge1" class="edge"><title>node_g&#45;&gt;node_a</title>
<path fill="none" stroke="black" d="M69.8877,-93.3692C78.6749,-77.9555 88.9738,-59.8903 97.1872,-45.4831"/>
<polygon fill="black" stroke="black" points="100.312,-47.0696 102.224,-36.6487 94.2303,-43.6027 100.312,-47.0696"/>
</g>
<!-- node_e -->
<g id="node5" class="node"><title>node_e</title>
<polygon fill="none" stroke="black" points="12,-0.5 12,-36.5 66,-36.5 66,-0.5 12,-0.5"/>
<text text-anchor="middle" x="38.6069" y="-14.3" font-family="Times,serif" font-size="14.00">e</text>
</g>
<!-- node_g&#45;&gt;node_e -->
<g id="edge6" class="edge"><title>node_g&#45;&gt;node_e</title>
<path fill="none" stroke="black" d="M47.274,-93.2769C45.6015,-78.3638 43.6524,-60.9836 42.0661,-46.8394"/>
<polygon fill="black" stroke="black" points="45.516,-46.1963 40.9232,-36.6487 38.5596,-46.9765 45.516,-46.1963"/>
</g>
<!-- node_c -->
<g id="node3" class="node"><title>node_c</title>
<polygon fill="none" stroke="black" points="79,-218.5 79,-254.5 133,-254.5 133,-218.5 79,-218.5"/>
<text text-anchor="middle" x="105.607" y="-232.3" font-family="Times,serif" font-size="14.00">c</text>
</g>
<!-- node_c&#45;&gt;node_a -->
<g id="edge3" class="edge"><title>node_c&#45;&gt;node_a</title>
<path fill="none" stroke="black" d="M106.481,-218.189C107.521,-180.733 109.988,-91.9172 111.241,-46.8073"/>
<polygon fill="black" stroke="black" points="114.746,-46.687 111.525,-36.5937 107.749,-46.4926 114.746,-46.687"/>
</g>
<!-- node_c&#45;&gt;node_g -->
<g id="edge2" class="edge"><title>node_c&#45;&gt;node_g</title>
<path fill="none" stroke="black" d="M97.1633,-218.309C96.6206,-217.253 96.0596,-216.161 95.4822,-215.038"/>
<polygon fill="black" stroke="black" points="98.4506,-213.157 90.7661,-205.863 92.2249,-216.357 98.4506,-213.157"/>
</g>
<!-- node_d -->
<g id="node4" class="node"><title>node_d</title>
<path fill="none" stroke="black" d="M63,-327.5C63,-327.5 93,-327.5 93,-327.5 99,-327.5 105,-333.5 105,-339.5 105,-339.5 105,-351.5 105,-351.5 105,-357.5 99,-363.5 93,-363.5 93,-363.5 63,-363.5 63,-363.5 57,-363.5 51,-357.5 51,-351.5 51,-351.5 51,-339.5 51,-339.5 51,-333.5 57,-327.5 63,-327.5"/>
<text text-anchor="middle" x="78" y="-341.3" font-family="Times,serif" font-size="14.00">d</text>
</g>
<!-- node_d&#45;&gt;node_g -->
<g id="edge5" class="edge"><title>node_d&#45;&gt;node_g</title>
<path fill="none" stroke="black" d="M75.8361,-327.189C72.8054,-302.943 67.0844,-257.175 61.8967,-215.673"/>
<polygon fill="black" stroke="black" points="65.3395,-214.997 60.6261,-205.509 58.3936,-215.866 65.3395,-214.997"/>
</g>
<!-- node_d&#45;&gt;node_c -->
<g id="edge4" class="edge"><title>node_d&#45;&gt;node_c</title>
<path fill="none" stroke="black" d="M82.4987,-327.309C86.9278,-310.383 93.7591,-284.278 98.9172,-264.567"/>
<polygon fill="black" stroke="black" points="102.367,-265.209 101.512,-254.649 95.5948,-263.437 102.367,-265.209"/>
</g>
</g>
</svg>
